<svg width="226" height="226" viewBox="0 0 226 226" fill="none" xmlns="http://www.w3.org/2000/svg">
<path d="M225.5 112.75C225.5 174.882 175.132 225.25 113 225.25C50.868 225.25 0.5 174.882 0.5 112.75C0.5 50.618 50.868 0.25 113 0.25C175.132 0.25 225.5 50.618 225.5 112.75Z" fill="#35457E"/>
<path d="M225.5 112.75C225.5 174.882 175.132 225.25 113 225.25C50.868 225.25 0.5 174.882 0.5 112.75C0.5 50.618 50.868 0.25 113 0.25C175.132 0.25 225.5 50.618 225.5 112.75Z" fill="#35457E"/>
<path d="M225.5 112.75C225.5 174.882 175.132 225.25 113 225.25C50.868 225.25 0.5 174.882 0.5 112.75C0.5 50.618 50.868 0.25 113 0.25C175.132 0.25 225.5 50.618 225.5 112.75Z" fill="#35457E"/>
</svg>
