<svg width="45" height="45" viewBox="0 0 45 45" fill="none" xmlns="http://www.w3.org/2000/svg">
<rect width="45" height="45" rx="22" fill="#F07C00"/>
<path fillRule="evenodd" clipRule="evenodd" d="M17.1653 10H27.8347L35 17.1653V26.2722L32.5222 28.75H28.1028L26.584 27.2312C25.4895 28.1765 24.06 28.75 22.5 28.75C19.0482 28.75 16.25 25.9518 16.25 22.5C16.25 19.0482 19.0482 16.25 22.5 16.25C25.9518 16.25 28.75 19.0482 28.75 22.5V24.9778L29.3972 25.625H31.2278L31.875 24.9778V18.4597L26.5403 13.125H18.4597L13.125 18.4597V26.5403L18.4597 31.875H27.1875V35H17.1653L10 27.8347V17.1653L17.1653 10ZM25.625 22.5C25.625 20.7741 24.2259 19.375 22.5 19.375C20.7741 19.375 19.375 20.7741 19.375 22.5C19.375 24.2259 20.7741 25.625 22.5 25.625C23.3014 25.625 24.029 25.3254 24.5829 24.8296C25.2248 24.2552 25.625 23.4254 25.625 22.5Z" fill="white"/>
</svg>
