<svg width="40" height="40" viewBox="0 0 40 40" fill="none" xmlns="http://www.w3.org/2000/svg">
<path fill-rule="evenodd" clip-rule="evenodd" d="M17.999 26.6666C12.4762 26.6666 7.99902 22.1894 7.99902 16.6666C7.99902 11.1437 12.4762 6.66656 17.999 6.66656C23.5219 6.66656 27.999 11.1437 27.999 16.6666C27.999 19.3082 26.9747 21.7106 25.3017 23.4983L30.37 29.8337C30.83 30.4088 30.7368 31.2478 30.1618 31.7078C29.5868 32.1678 28.7477 32.0746 28.2877 31.4996L23.2372 25.1865C21.7138 26.1251 19.9197 26.6666 17.999 26.6666ZM17.9984 24.0001C22.0485 24.0001 25.3318 20.7168 25.3318 16.6667C25.3318 12.6166 22.0485 9.33335 17.9984 9.33335C13.9483 9.33335 10.665 12.6166 10.665 16.6667C10.665 20.7168 13.9483 24.0001 17.9984 24.0001Z" fill="black"/>
<mask id="mask0_108_50" style="mask-type:alpha" maskUnits="userSpaceOnUse" x="7" y="6" width="24" height="26">
<path fill-rule="evenodd" clip-rule="evenodd" d="M17.999 26.6666C12.4762 26.6666 7.99902 22.1894 7.99902 16.6666C7.99902 11.1437 12.4762 6.66656 17.999 6.66656C23.5219 6.66656 27.999 11.1437 27.999 16.6666C27.999 19.3082 26.9747 21.7106 25.3017 23.4983L30.37 29.8337C30.83 30.4088 30.7368 31.2478 30.1618 31.7078C29.5868 32.1678 28.7477 32.0746 28.2877 31.4996L23.2372 25.1865C21.7138 26.1251 19.9197 26.6666 17.999 26.6666ZM17.9984 24.0001C22.0485 24.0001 25.3318 20.7168 25.3318 16.6667C25.3318 12.6166 22.0485 9.33335 17.9984 9.33335C13.9483 9.33335 10.665 12.6166 10.665 16.6667C10.665 20.7168 13.9483 24.0001 17.9984 24.0001Z" fill="white"/>
</mask>
<g mask="url(#mask0_108_50)">
<rect x="6.28906" y="1.66333" width="25.7509" height="37.4255" fill="white"/>
</g>
</svg>
