<svg width="35" height="34" viewBox="0 0 35 34" fill="none" xmlns="http://www.w3.org/2000/svg">
<path d="M27.7096 17.0145C27.7096 14.8944 27.009 12.8302 25.7106 11.1253C24.4123 9.42033 22.5847 8.16456 20.4965 7.54251C18.4082 6.92047 16.1695 6.96495 14.1093 7.66942C12.049 8.37389 10.2759 9.7012 9.05055 11.4563C7.82517 13.2114 7.21213 15.3017 7.30152 17.42C7.39092 19.5383 8.17803 21.573 9.54719 23.2249C10.9163 24.8769 12.7953 26.059 14.908 26.5976C17.0207 27.1362 19.2557 27.0028 21.2845 26.2171" stroke="#666666" stroke-width="2.31618" stroke-linecap="round" stroke-linejoin="round"/>
<path d="M28.8664 17.0144C28.8664 16.3748 28.3479 15.8563 27.7083 15.8563C27.0687 15.8563 26.5502 16.3748 26.5502 17.0144H28.8664ZM23.0331 12.7681C23.0331 12.1285 22.5146 11.61 21.875 11.61C21.2354 11.61 20.7169 12.1285 20.7169 12.7681H23.0331ZM26.5502 17.0144V18.4298H28.8664V17.0144H26.5502ZM23.0331 18.4298V12.7681H20.7169V18.4298H23.0331ZM24.7917 20.1026C23.7876 20.1026 23.0331 19.3213 23.0331 18.4298H20.7169C20.7169 20.6652 22.5741 22.4188 24.7917 22.4188V20.1026ZM26.5502 18.4298C26.5502 19.3213 25.7957 20.1026 24.7917 20.1026V22.4188C27.0093 22.4188 28.8664 20.6652 28.8664 18.4298H26.5502Z" fill="#666666"/>
<path d="M21.875 17.0144C21.875 19.3596 19.9162 21.2607 17.5 21.2607C15.0838 21.2607 13.125 19.3596 13.125 17.0144C13.125 14.6692 15.0838 12.7681 17.5 12.7681C19.9162 12.7681 21.875 14.6692 21.875 17.0144Z" stroke="#666666" stroke-width="2.31618" stroke-linecap="round" stroke-linejoin="round"/>
</svg>
