<svg width="25" height="25" viewBox="0 0 25 25" fill="none" xmlns="http://www.w3.org/2000/svg">
<path d="M10.0029 4.50673L8.95835 4.92454V4.92454L10.0029 4.50673ZM11.0572 7.14239L12.1017 6.72458V6.72458L11.0572 7.14239ZM10.7366 9.16554L11.6009 9.88575L11.6009 9.88575L10.7366 9.16554ZM10.1692 9.84641L11.0335 10.5666H11.0335L10.1692 9.84641ZM10.2915 12.541L9.49598 13.3365L10.2915 12.541ZM12.2085 14.458L13.004 13.6625V13.6625L12.2085 14.458ZM14.9031 14.5803L14.1829 13.716L14.9031 14.5803ZM15.584 14.0129L16.3042 14.8771L16.3042 14.8771L15.584 14.0129ZM17.6071 13.6924L17.1893 14.7369L17.6071 13.6924ZM20.2428 14.7466L20.6606 13.7021L20.2428 14.7466ZM5.39474 4.37451H8.14593V2.12451H5.39474V4.37451ZM8.95835 4.92454L10.0126 7.56021L12.1017 6.72458L11.0474 4.08892L8.95835 4.92454ZM9.87239 8.44533L9.305 9.1262L11.0335 10.5666L11.6009 9.88575L9.87239 8.44533ZM9.49598 13.3365L11.413 15.2535L13.004 13.6625L11.087 11.7455L9.49598 13.3365ZM15.6233 15.4445L16.3042 14.8771L14.8638 13.1486L14.1829 13.716L15.6233 15.4445ZM17.1893 14.7369L19.825 15.7912L20.6606 13.7021L18.0249 12.6478L17.1893 14.7369ZM20.375 16.6036V19.3548H22.625V16.6036H20.375ZM19.6053 20.1245C11.3319 20.1245 4.625 13.4176 4.625 5.14425H2.375C2.375 14.6603 10.0893 22.3745 19.6053 22.3745V20.1245ZM20.375 19.3548C20.375 19.7799 20.0304 20.1245 19.6053 20.1245V22.3745C21.273 22.3745 22.625 21.0225 22.625 19.3548H20.375ZM19.825 15.7912C20.1572 15.924 20.375 16.2458 20.375 16.6036H22.625C22.625 15.3257 21.847 14.1767 20.6606 13.7021L19.825 15.7912ZM16.3042 14.8771C16.5511 14.6714 16.8909 14.6175 17.1893 14.7369L18.0249 12.6478C16.9592 12.2215 15.7455 12.4138 14.8638 13.1486L16.3042 14.8771ZM11.413 15.2535C12.5559 16.3964 14.3817 16.4792 15.6233 15.4445L14.1829 13.716C13.8352 14.0057 13.324 13.9825 13.004 13.6625L11.413 15.2535ZM9.305 9.1262C8.2703 10.3678 8.35312 12.1936 9.49598 13.3365L11.087 11.7455C10.767 11.4255 10.7438 10.9143 11.0335 10.5666L9.305 9.1262ZM10.0126 7.56021C10.132 7.85861 10.0781 8.19843 9.87239 8.44533L11.6009 9.88575C12.3357 9.00396 12.528 7.79031 12.1017 6.72458L10.0126 7.56021ZM8.14593 4.37451C8.50373 4.37451 8.82547 4.59234 8.95835 4.92454L11.0474 4.08892C10.5728 2.90248 9.42376 2.12451 8.14593 2.12451V4.37451ZM5.39474 2.12451C3.72698 2.12451 2.375 3.47649 2.375 5.14425H4.625C4.625 4.71913 4.96962 4.37451 5.39474 4.37451V2.12451Z" fill="#666666"/>
</svg>
