<svg width="91" height="102" viewBox="0 0 91 102" fill="none" xmlns="http://www.w3.org/2000/svg">
<path d="M0.586188 96.5939C0.361884 97.0985 0.589177 97.6895 1.09386 97.9138L9.31817 101.569C9.82285 101.793 10.4138 101.566 10.6381 101.061C10.8624 100.557 10.6351 99.9657 10.1304 99.7414L2.81995 96.4923L6.06906 89.1818C6.29336 88.6771 6.06607 88.0862 5.56138 87.8619C5.0567 87.6376 4.46574 87.8649 4.24143 88.3696L0.586188 96.5939ZM1.85898 97.9333C2.0288 97.868 2.2986 97.7863 2.6877 97.686L2.18814 95.7494C1.78093 95.8544 1.42113 95.9589 1.14102 96.0667L1.85898 97.9333ZM4.57176 97.2478C5.15366 97.1197 5.8042 96.9795 6.52606 96.8224L6.10085 94.8682C5.38454 95.024 4.72672 95.1658 4.14199 95.2945L4.57176 97.2478ZM8.48399 96.3912C9.10533 96.2522 9.76103 96.103 10.4484 95.9425L9.99373 93.9949C9.31332 94.1538 8.66372 94.3016 8.0473 94.4395L8.48399 96.3912ZM12.4261 95.4695C13.0494 95.3167 13.6933 95.1552 14.3562 94.9844L13.8571 93.0477C13.2023 93.2164 12.5661 93.376 11.95 93.527L12.4261 95.4695ZM16.2969 94.4712C16.9376 94.2973 17.5932 94.115 18.2626 93.9237L17.713 92.0007C17.0526 92.1894 16.4056 92.3693 15.7732 92.5409L16.2969 94.4712ZM20.1659 93.3658C20.8012 93.1749 21.4471 92.976 22.1026 92.7688L21.4998 90.8618C20.8535 91.0661 20.2168 91.2622 19.5903 91.4504L20.1659 93.3658ZM24.0082 92.1512C24.6376 91.9421 25.2747 91.7254 25.9188 91.5007L25.26 89.6123C24.6256 89.8336 23.9979 90.0471 23.3778 90.2531L24.0082 92.1512ZM27.8128 90.8237C28.4364 90.5954 29.0657 90.3596 29.7001 90.116L28.9831 88.2489C28.3587 88.4887 27.7392 88.7208 27.1252 88.9456L27.8128 90.8237ZM31.5736 89.3793C32.1913 89.1306 32.8131 88.8745 33.4385 88.6107L32.6613 86.768C32.0462 87.0274 31.4345 87.2793 30.8268 87.524L31.5736 89.3793ZM35.2855 87.8134C35.8968 87.5434 36.511 87.266 37.1275 86.9808L36.2879 85.1656C35.6821 85.4458 35.0784 85.7185 34.4774 85.984L35.2855 87.8134ZM38.9432 86.1217C39.5471 85.8294 40.1529 85.5296 40.76 85.2222L39.8563 83.438C39.2601 83.7399 38.6652 84.0343 38.0719 84.3215L38.9432 86.1217ZM42.5403 84.2999C43.1347 83.985 43.7299 83.6626 44.3256 83.3325L43.356 81.5832C42.7716 81.9071 42.1875 82.2235 41.604 82.5326L42.5403 84.2999ZM46.0696 82.344C46.65 82.0077 47.2304 81.6638 47.8104 81.3123L46.7737 79.6019C46.2051 79.9466 45.636 80.2837 45.0668 80.6136L46.0696 82.344ZM49.523 80.2506C50.0881 79.8924 50.6524 79.5267 51.2156 79.1533L50.1105 77.4864C49.5588 77.8521 49.006 78.2104 48.4522 78.5614L49.523 80.2506ZM52.8919 78.0166C53.4402 77.6364 53.987 77.2486 54.5321 76.8531L53.3577 75.2343C52.8242 75.6213 52.2889 76.0009 51.7521 76.3732L52.8919 78.0166ZM56.1618 75.6436C56.6934 75.24 57.223 74.8288 57.7502 74.4099L56.506 72.844C55.9904 73.2536 55.4725 73.6558 54.9524 74.0507L56.1618 75.6436ZM59.3192 73.1343C59.8356 72.7047 60.3494 72.2675 60.8602 71.8224L59.5464 70.3145C59.0472 70.7494 58.545 71.1768 58.0402 71.5967L59.3192 73.1343ZM62.3636 70.4817C62.8617 70.0271 63.3566 69.5647 63.8481 69.0944L62.4653 67.6494C61.9853 68.1087 61.5019 68.5604 61.0153 69.0045L62.3636 70.4817ZM65.2851 67.6864C65.7591 67.2109 66.2294 66.7277 66.6959 66.2367L65.2458 64.8592C64.7905 65.3385 64.3313 65.8103 63.8686 66.2745L65.2851 67.6864ZM68.0747 64.7495C68.5227 64.2543 68.9667 63.7515 69.4065 63.241L67.8912 61.9356C67.4621 62.4338 67.0288 62.9244 66.5916 63.4077L68.0747 64.7495ZM70.7128 61.6861C71.137 61.1683 71.5569 60.6429 71.9721 60.1098L70.3941 58.8809C69.9891 59.4009 69.5796 59.9135 69.1657 60.4186L70.7128 61.6861ZM73.1924 58.5022C73.5945 57.9587 73.9918 57.4075 74.384 56.8485L72.7468 55.6997C72.3643 56.245 71.9768 56.7826 71.5846 57.3127L73.1924 58.5022ZM75.5161 55.1919C75.8878 54.6333 76.2546 54.0672 76.6161 53.4936L74.924 52.4273C74.5714 52.9869 74.2137 53.5391 73.8511 54.0839L75.5161 55.1919ZM77.6797 51.7581C78.0199 51.1871 78.355 50.6089 78.6847 50.0234L76.9421 49.042C76.6204 49.6132 76.2934 50.1773 75.9615 50.7344L77.6797 51.7581ZM79.6577 48.2449C79.9734 47.6505 80.2837 47.0489 80.5884 46.44L78.7998 45.5452C78.5024 46.1395 78.1996 46.7266 77.8915 47.3066L79.6577 48.2449ZM81.4639 44.6364C81.7503 44.0281 82.0311 43.4128 82.3061 42.7904L80.4767 41.9821C80.2081 42.5899 79.934 43.1907 79.6544 43.7845L81.4639 44.6364ZM83.1042 40.9246C83.3579 40.3116 83.6061 39.6921 83.8486 39.0657L81.9835 38.3436C81.7465 38.9556 81.5041 39.561 81.2563 40.1597L83.1042 40.9246ZM84.5589 37.1663C84.7877 36.5327 85.0107 35.8924 85.2278 35.2454L83.3317 34.6091C83.1194 35.2419 82.9013 35.8679 82.6777 36.4872L84.5589 37.1663ZM85.8421 33.3458C86.0413 32.7062 86.2348 32.0603 86.4225 31.4078L84.5004 30.8549C84.3167 31.4934 84.1274 32.1255 83.9325 32.7512L85.8421 33.3458ZM86.9673 29.4338C87.1354 28.7979 87.2981 28.156 87.4553 27.5081L85.5117 27.0366C85.3577 27.6713 85.1984 28.2999 85.0337 28.9225L86.9673 29.4338ZM87.91 25.5464C88.0559 24.8865 88.1962 24.2205 88.3306 23.5483L86.3694 23.1561C86.2376 23.8151 86.1002 24.4679 85.9572 25.1146L87.91 25.5464ZM88.7046 21.5789C88.8218 20.9274 88.9336 20.2704 89.0399 19.6076L87.0652 19.2908C86.9608 19.9411 86.8511 20.5858 86.7361 21.2248L88.7046 21.5789ZM89.3424 17.6025C89.4369 16.9332 89.526 16.2583 89.6095 15.5778L87.6243 15.3344C87.5424 16.0028 87.4549 16.6655 87.362 17.3226L89.3424 17.6025ZM89.8334 13.6099C89.9028 12.9487 89.967 12.2823 90.0259 11.6106L88.0335 11.436C87.9756 12.0963 87.9125 12.7513 87.8443 13.401L89.8334 13.6099ZM90.1864 9.57989C90.2335 8.91304 90.2754 8.24113 90.312 7.56411L88.3149 7.45605C88.2789 8.12222 88.2377 8.78322 88.1914 9.43909L90.1864 9.57989ZM90.4036 5.5821C90.4292 4.91661 90.4497 4.24631 90.4651 3.57114L88.4656 3.52541C88.4504 4.19031 88.4302 4.85029 88.4051 5.50539L90.4036 5.5821ZM90.4961 1.53106C90.4987 1.1886 90.5 0.844912 90.5 0.5H88.5C88.5 0.839881 88.4987 1.17852 88.4962 1.51591L90.4961 1.53106Z" fill="#F07C00"/>
</svg>
