<svg width="100" height="91" viewBox="0 0 100 91" fill="none" xmlns="http://www.w3.org/2000/svg">
<path d="M91.7929 90.2071C92.1834 90.5976 92.8166 90.5976 93.2071 90.2071L99.5711 83.8431C99.9616 83.4526 99.9616 82.8195 99.5711 82.4289C99.1805 82.0384 98.5474 82.0384 98.1569 82.4289L92.5 88.0858L86.8431 82.4289C86.4526 82.0384 85.8195 82.0384 85.4289 82.4289C85.0384 82.8195 85.0384 83.4526 85.4289 83.8431L91.7929 90.2071ZM0 2C0.337916 2 0.674639 2.00165 1.01017 2.00494L1.02977 0.0050354C0.687688 0.00168318 0.344432 0 0 0V2ZM3.00913 2.04419C3.67072 2.06374 4.32758 2.08973 4.97975 2.12202L5.07867 0.124469C4.41316 0.0915133 3.74302 0.0650073 3.06822 0.0450639L3.00913 2.04419ZM6.92985 2.23826C7.60155 2.28513 8.26815 2.33877 8.92971 2.39904L9.11116 0.407283C8.43548 0.345729 7.7548 0.290962 7.06907 0.243112L6.92985 2.23826ZM10.8993 2.59961C11.5508 2.67301 12.1973 2.75291 12.8388 2.83917L13.1053 0.857017C12.4496 0.768834 11.7889 0.687178 11.1232 0.612179L10.8993 2.59961ZM14.8126 3.12701C15.4698 3.23038 16.1217 3.34051 16.7683 3.45724L17.1236 1.48906C16.4621 1.36964 15.7954 1.25701 15.1233 1.1513L14.8126 3.12701ZM18.6922 3.82711C19.3444 3.96021 19.9911 4.1001 20.6323 4.24662L21.0778 2.29687C20.4214 2.14688 19.7595 2.00371 19.0921 1.8675L18.6922 3.82711ZM22.5609 4.71133C23.1982 4.8729 23.8299 5.04109 24.4561 5.21574L24.9934 3.28925C24.3519 3.11037 23.705 2.93811 23.0524 2.77266L22.5609 4.71133ZM26.3586 5.77115C26.9939 5.96499 27.6234 6.16555 28.2471 6.37263L28.8773 4.47451C28.2382 4.26231 27.5932 4.05682 26.9423 3.85822L26.3586 5.77115ZM30.1009 7.01327C30.7262 7.23791 31.3454 7.46917 31.9588 7.70686L32.6815 5.84199C32.0527 5.59834 31.418 5.3613 30.7771 5.13106L30.1009 7.01327ZM33.7949 8.44469C34.4009 8.69703 35.001 8.9557 35.5953 9.22052L36.4094 7.39371C35.8002 7.12222 35.1849 6.85703 34.5636 6.59834L33.7949 8.44469ZM37.3997 10.0519C37.9967 10.3361 38.5876 10.6265 39.1724 10.923L40.0767 9.13908C39.4772 8.83515 38.8714 8.5374 38.2593 8.24605L37.3997 10.0519ZM40.913 11.8326C41.4984 12.1477 42.0774 12.469 42.6503 12.7961L43.642 11.0593C43.0548 10.724 42.4612 10.3947 41.8612 10.0716L40.913 11.8326ZM44.3503 13.7948C44.9151 14.136 45.4737 14.483 46.0261 14.8354L47.1019 13.1494C46.5358 12.7882 45.9634 12.4327 45.3845 12.0829L44.3503 13.7948ZM47.6835 15.9217C48.2297 16.2892 48.7696 16.6622 49.3033 17.0403L50.4595 15.4083C49.9128 15.021 49.3597 14.6389 48.8001 14.2624L47.6835 15.9217ZM50.9058 18.2046C51.4361 18.5996 51.9599 18.9997 52.4775 19.4046L53.7099 17.8294C53.18 17.4148 52.6436 17.0052 52.1007 16.6007L50.9058 18.2046ZM54.0144 20.636C54.5275 21.0569 55.0341 21.4826 55.5344 21.9127L56.8383 20.3962C56.3264 19.9561 55.808 19.5206 55.283 19.0898L54.0144 20.636ZM57.0164 23.2163C57.508 23.6587 57.9933 24.1054 58.4722 24.5561L59.8428 23.0996C59.3532 22.6388 58.857 22.1821 58.3542 21.7296L57.0164 23.2163ZM59.8998 25.9295C60.3693 26.3911 60.8325 26.8566 61.2894 27.3256L62.722 25.9299C62.2552 25.4508 61.7819 24.9752 61.3021 24.5034L59.8998 25.9295ZM62.6614 28.7641C63.1123 29.2471 63.5569 29.7334 63.9952 30.2228L65.485 28.8885C65.0377 28.389 64.5838 27.8924 64.1233 27.3992L62.6614 28.7641ZM65.3009 31.7112C65.7331 32.2141 66.1589 32.7198 66.5784 33.2281L68.121 31.9552C67.6931 31.4367 67.2587 30.9207 66.8177 30.4076L65.3009 31.7112ZM67.8184 34.7612C68.2321 35.2829 68.6392 35.8069 69.0399 36.3329L70.6308 35.1209C70.2224 34.5848 69.8074 34.0506 69.3856 33.5187L67.8184 34.7612ZM70.223 37.9166C70.6153 38.4523 71.0012 38.9897 71.3808 39.5285L73.0158 38.3767C72.6293 37.828 72.2362 37.2805 71.8364 36.7348L70.223 37.9166ZM72.5081 41.1604C72.8792 41.7081 73.2439 42.257 73.6022 42.8066L75.2776 41.7143C74.9129 41.1549 74.5417 40.5962 74.1639 40.0385L72.5081 41.1604ZM74.6748 44.4839C75.0258 45.0436 75.3703 45.6036 75.7084 46.1637L77.4206 45.1302C77.0767 44.5605 76.7262 43.9907 76.3691 43.4213L74.6748 44.4839ZM76.7246 47.8802C77.0576 48.4535 77.3839 49.0265 77.7037 49.5988L79.4496 48.6232C79.1245 48.0414 78.7927 47.4588 78.4542 46.8758L76.7246 47.8802ZM78.6595 51.3427C78.9746 51.929 79.2829 52.5141 79.5846 53.0976L81.3612 52.1791C81.0547 51.5862 80.7414 50.9916 80.4211 50.3958L78.6595 51.3427ZM80.481 54.8658C80.7785 55.4644 81.069 56.0608 81.3526 56.6546L83.1574 55.7927C82.8693 55.1895 82.5742 54.5837 82.272 53.9756L80.481 54.8658ZM82.1908 58.445C82.4708 59.0552 82.7434 59.662 83.0088 60.2649L84.8393 59.4591C84.5698 58.8469 84.2929 58.2307 84.0086 57.6111L82.1908 58.445ZM83.7901 62.0769C84.0522 62.6977 84.3066 63.3136 84.5535 63.9241L86.4077 63.1744C86.157 62.5546 85.8987 61.9292 85.6326 61.299L83.7901 62.0769ZM85.2793 65.7589C85.5229 66.3887 85.7584 67.0118 85.9858 67.6277L87.862 66.9347C87.631 66.3094 87.3919 65.6767 87.1446 65.0373L85.2793 65.7589ZM86.6571 69.4886C86.8811 70.1248 87.0963 70.7521 87.3029 71.3695L89.1995 70.7348C88.9896 70.1076 88.771 69.4706 88.5436 68.8244L86.6571 69.4886ZM87.9195 73.2617C88.1218 73.8999 88.3145 74.5259 88.4979 75.1386L90.4139 74.5651C90.2275 73.9421 90.0316 73.3059 89.826 72.6573L87.9195 73.2617ZM89.0571 77.0671C89.2408 77.7218 89.413 78.3585 89.5742 78.9756L91.5093 78.4702C91.3451 77.8414 91.1697 77.1932 90.9828 76.5268L89.0571 77.0671ZM90.0502 80.8724C90.2139 81.5532 90.3625 82.2043 90.4966 82.8233L92.4513 82.3997C92.3139 81.7657 92.1619 81.0999 91.9947 80.4048L90.0502 80.8724ZM90.8915 84.7668C91.0247 85.473 91.1346 86.1197 91.2225 86.7019L93.2001 86.4031C93.1081 85.7945 92.9941 85.1237 92.8569 84.3961L90.8915 84.7668ZM91.4545 88.5942C91.486 88.9664 91.5 89.2681 91.5 89.5H93.5C93.5 89.1947 93.4819 88.8336 93.4473 88.4252L91.4545 88.5942Z" fill="#F07C00"/>
</svg>
