<svg width="95" height="105" viewBox="0 0 95 105" fill="none" xmlns="http://www.w3.org/2000/svg">
<path d="M94.7071 97.6251C95.0976 97.2346 95.0976 96.6014 94.7071 96.2109L88.3431 89.8469C87.9526 89.4564 87.3195 89.4564 86.9289 89.8469C86.5384 90.2375 86.5384 90.8706 86.9289 91.2612L92.5858 96.918L86.9289 102.575C86.5384 102.965 86.5384 103.599 86.9289 103.989C87.3195 104.38 87.9526 104.38 88.3431 103.989L94.7071 97.6251ZM0 1.08302e-07C3.72797e-08 0.344219 0.000619757 0.687235 0.00185647 1.02905L2.00184 1.02182C2.00062 0.682423 2 0.341819 2 -1.08302e-07L0 1.08302e-07ZM0.0166592 3.0656C0.0240471 3.73967 0.0338814 4.40899 0.0461408 5.07357L2.0458 5.03668C2.03363 4.37714 2.02387 3.71281 2.01654 3.04368L0.0166592 3.0656ZM0.0901725 7.05318C0.10726 7.70834 0.126752 8.35881 0.148626 9.00463L2.14748 8.93692C2.12578 8.29635 2.10645 7.65106 2.08949 7.00103L0.0901725 7.05318ZM0.22578 11.033C0.254529 11.7133 0.285979 12.3884 0.320103 13.0583L2.31751 12.9565C2.28369 12.2925 2.2525 11.6232 2.224 10.9485L0.22578 11.033ZM0.43047 15.052C0.469916 15.7114 0.51201 16.3656 0.556725 17.0146L2.55199 16.8771C2.5077 16.2342 2.46599 15.586 2.4269 14.9326L0.43047 15.052ZM0.70276 18.9979C0.756364 19.6814 0.812941 20.359 0.872461 21.0307L2.86466 20.8542C2.80574 20.1892 2.74972 19.5184 2.69664 18.8415L0.70276 18.9979ZM1.05981 23.0287C1.12519 23.6889 1.19347 24.3433 1.26463 24.9921L3.2527 24.774C3.18232 24.1323 3.11477 23.4849 3.05008 22.8316L1.05981 23.0287ZM1.4911 26.9575C1.57356 27.6398 1.65928 28.3157 1.74823 28.9851L3.73081 28.7217C3.64291 28.0602 3.55818 27.3922 3.47666 26.7176L1.4911 26.9575ZM2.02471 30.9742C2.12007 31.6308 2.21862 32.2811 2.32031 32.925L4.29583 32.613C4.19544 31.9773 4.09813 31.3353 4.00395 30.6867L2.02471 30.9742ZM2.64459 34.8953C2.76041 35.5711 2.87979 36.2398 3.00268 36.9013L4.96904 36.5361C4.84787 35.8837 4.73012 35.2242 4.61586 34.5575L2.64459 34.8953ZM3.38188 38.865C3.51176 39.5125 3.64512 40.153 3.78189 40.7866L5.73686 40.3645C5.60217 39.7406 5.4708 39.1097 5.34281 38.4716L3.38188 38.865ZM4.22791 42.7763C4.38202 43.4389 4.54 44.0936 4.70178 44.7407L6.64204 44.2555C6.48296 43.6193 6.32756 42.9752 6.17591 42.3232L4.22791 42.7763ZM5.1985 46.6585C5.37354 47.3114 5.55259 47.9561 5.73559 48.5927L7.65775 48.0402C7.47811 47.4152 7.30226 46.7821 7.13027 46.1406L5.1985 46.6585ZM6.316 50.5424C6.51364 51.1837 6.71543 51.8165 6.9213 52.4409L8.82072 51.8146C8.61899 51.2027 8.42115 50.5824 8.2273 49.9533L6.316 50.5424ZM7.56623 54.3319C7.79475 54.98 8.02782 55.6186 8.26537 56.2478L10.1365 55.5415C9.90417 54.9261 9.67611 54.3012 9.4524 53.6668L7.56623 54.3319ZM8.99135 58.1079C9.24431 58.7349 9.5019 59.3522 9.76401 59.96L11.6005 59.1681C11.3447 58.5749 11.0932 57.9722 10.8461 57.3596L8.99135 58.1079ZM10.5936 61.8197C10.875 62.4294 11.1611 63.0291 11.4518 63.6188L13.2457 62.7344C12.9626 62.1602 12.6839 61.5761 12.4096 60.9817L10.5936 61.8197ZM12.3734 65.4257C12.6918 66.0293 13.0153 66.6219 13.3438 67.2037L15.0854 66.2204C14.7664 65.6553 14.452 65.0794 14.1424 64.4925L12.3734 65.4257ZM14.3469 68.9217C14.704 69.513 15.0664 70.0926 15.4341 70.6606L17.113 69.5737C16.7568 69.0234 16.4054 68.4616 16.0591 67.888L14.3469 68.9217ZM16.5527 72.33C16.9416 72.8908 17.3359 73.4395 17.7354 73.9764L19.34 72.7826C18.9538 72.2636 18.5725 71.7329 18.1962 71.1903L16.5527 72.33ZM18.974 75.5831C19.3963 76.1117 19.824 76.6281 20.2568 77.1325L21.7746 75.8301C21.3571 75.3435 20.9444 74.8452 20.5366 74.3348L18.974 75.5831ZM21.6137 78.657C22.0714 79.1526 22.5344 79.6357 23.0024 80.1066L24.421 78.6968C23.9702 78.2432 23.5242 77.7778 23.083 77.3001L21.6137 78.657ZM24.4714 81.5298C24.9668 81.9918 25.4673 82.441 25.9728 82.8778L27.2804 81.3645C26.794 80.9442 26.3123 80.5119 25.8354 80.0672L24.4714 81.5298ZM27.5392 84.1795C28.0693 84.603 28.6043 85.0137 29.1441 85.412L30.3316 83.8027C29.8123 83.4195 29.2975 83.0244 28.7875 82.6169L27.5392 84.1795ZM30.8018 86.5868C31.3628 86.9684 31.9285 87.3375 32.4984 87.6943L33.5598 85.9992C33.011 85.6556 32.4666 85.3004 31.9267 84.9331L30.8018 86.5868ZM34.2378 88.7384C34.8254 89.0764 35.4172 89.4021 36.0127 89.7161L36.9455 87.9469C36.3713 87.6442 35.801 87.3302 35.2349 87.0047L34.2378 88.7384ZM37.822 90.6287C38.4315 90.9227 39.0447 91.2051 39.6612 91.4763L40.4667 89.6457C39.8711 89.3836 39.279 89.1109 38.6907 88.8272L37.822 90.6287ZM41.5274 92.26C42.1545 92.511 42.7846 92.7513 43.4175 92.9811L44.1003 91.1013C43.4873 90.8786 42.8774 90.6461 42.2708 90.4032L41.5274 92.26ZM45.3282 93.6415C45.9688 93.8519 46.6118 94.0522 47.257 94.2431L47.8244 92.3253C47.1977 92.1399 46.5736 91.9454 45.9523 91.7413L45.3282 93.6415ZM49.2009 94.7882C49.8515 94.9609 50.5039 95.1244 51.1579 95.2793L51.6189 93.3332C50.9818 93.1823 50.3468 93.0231 49.7139 92.8551L49.2009 94.7882ZM53.1256 95.719C53.7833 95.8573 54.4422 95.9875 55.102 96.1099L55.4669 94.1435C54.8221 94.0238 54.1788 93.8968 53.5372 93.7618L53.1256 95.719ZM57.0858 96.4548C57.7483 96.5624 58.4114 96.6628 59.0749 96.7564L59.3542 94.776C58.704 94.6843 58.0547 94.586 57.4066 94.4807L57.0858 96.4548ZM61.0689 97.0175C61.7343 97.0981 62.3999 97.1724 63.0652 97.2408L63.2697 95.2513C62.616 95.1841 61.9624 95.1111 61.3094 95.032L61.0689 97.0175ZM65.065 97.4293C65.7322 97.4866 66.3988 97.5384 67.0646 97.5853L67.2051 95.5902C66.549 95.544 65.8926 95.493 65.2361 95.4366L65.065 97.4293ZM69.0671 97.7119C69.7351 97.7495 70.4018 97.7825 71.0672 97.8115L71.1541 95.8134C70.4968 95.7848 69.8385 95.7522 69.1795 95.7151L69.0671 97.7119ZM73.0704 97.887C73.7383 97.9084 74.4045 97.9262 75.0685 97.9408L75.1125 95.9413C74.4547 95.9268 73.7953 95.9092 73.1345 95.888L73.0704 97.887ZM77.0715 97.9758C77.7389 97.9846 78.4037 97.9907 79.0658 97.9946L79.0775 95.9946C78.4198 95.9908 77.7599 95.9848 77.0979 95.976L77.0715 97.9758ZM81.0683 98C81.7345 97.9999 82.3975 97.998 83.057 97.9948L83.0474 95.9948C82.3905 95.998 81.7306 95.9999 81.0679 96L81.0683 98ZM85.0594 97.9819C85.725 97.9767 86.3866 97.9708 87.0436 97.9646L87.0249 95.9647C86.3683 95.9708 85.7078 95.9768 85.0437 95.982L85.0594 97.9819ZM89.0435 97.9459C89.7102 97.9399 90.3716 97.9342 91.0276 97.9297L91.0135 95.9297C90.3556 95.9343 89.6927 95.94 89.0253 95.946L89.0435 97.9459ZM93.0185 97.9195C93.3472 97.9185 93.6744 97.918 94 97.918V95.918C93.6723 95.918 93.3432 95.9185 93.0127 95.9195L93.0185 97.9195Z" fill="#F07C00"/>
</svg>
