<svg width="136" height="136" viewBox="0 0 136 136" fill="none" xmlns="http://www.w3.org/2000/svg">
<path d="M113 67.7143C113 92.5672 92.8528 112.714 68 112.714V123.964C99.066 123.964 124.25 98.7804 124.25 67.7143H113ZM68 112.714C43.1472 112.714 23 92.5672 23 67.7143H11.75C11.75 98.7804 36.934 123.964 68 123.964V112.714ZM23 67.7143C23 42.8615 43.1472 22.7144 68 22.7144V11.4644C36.934 11.4644 11.75 36.6483 11.75 67.7143H23ZM68 22.7144C92.8528 22.7144 113 42.8615 113 67.7143H124.25C124.25 36.6483 99.066 11.4644 68 11.4644V22.7144Z" fill="#615C85"/>
<path d="M55.1025 69.3619C52.9058 67.1652 49.3442 67.1652 47.1475 69.3619C44.9508 71.5586 44.9508 75.1201 47.1475 77.3168L55.1025 69.3619ZM68 90.2143L64.0225 94.1918C66.2192 96.3885 69.7808 96.3885 71.9775 94.1918L68 90.2143ZM88.8525 77.3168C91.0492 75.1201 91.0492 71.5586 88.8525 69.3619C86.6558 67.1652 83.0942 67.1652 80.8975 69.3619L88.8525 77.3168ZM73.625 45.2144C73.625 42.1078 71.1066 39.5894 68 39.5894C64.8934 39.5894 62.375 42.1078 62.375 45.2144L73.625 45.2144ZM47.1475 77.3168L64.0225 94.1918L71.9775 86.2369L55.1025 69.3619L47.1475 77.3168ZM71.9775 94.1918L88.8525 77.3168L80.8975 69.3619L64.0225 86.2369L71.9775 94.1918ZM62.375 45.2144L62.375 90.2143H73.625L73.625 45.2144L62.375 45.2144Z" fill="#615C85"/>
</svg>
