<svg width="136" height="136" viewBox="0 0 136 136" fill="none" xmlns="http://www.w3.org/2000/svg">
<path d="M73.875 118.339H28.875C22.6618 118.339 17.625 113.303 17.625 107.089V28.3394C17.625 22.1262 22.6618 17.0894 28.875 17.0894H107.625C113.838 17.0894 118.875 22.1262 118.875 28.3394V73.3393C118.872 73.4043 118.861 73.4687 118.841 73.5306C118.825 73.5819 118.814 73.6347 118.807 73.6881C118.776 74.1841 118.679 74.6739 118.521 75.145L118.47 75.2968C118.432 75.4238 118.385 75.5479 118.329 75.6681C118.057 76.2809 117.676 76.8393 117.204 77.3162L77.8294 116.691C76.7802 117.741 75.3589 118.333 73.875 118.339ZM28.875 28.3394V107.089H68.25V73.3393C68.25 70.2327 70.7684 67.7143 73.875 67.7143H107.625V28.3394H28.875ZM79.5 78.9643V99.1412L99.6712 78.9643H79.5Z" fill="#5F5983"/>
</svg>
