<svg width="135" height="136" viewBox="0 0 135 136" fill="none" xmlns="http://www.w3.org/2000/svg">
<path d="M53.4537 24.1612L48.2311 26.2503V26.2503L53.4537 24.1612ZM59.384 38.9868L64.6067 36.8977L59.384 38.9868ZM57.5811 50.367L61.9023 53.9681H61.9023L57.5811 50.367ZM54.3895 54.1969L58.7108 57.7979H58.7108L54.3895 54.1969ZM55.0771 69.3539L51.0996 73.3314L55.0771 69.3539ZM65.8604 80.1373L69.8379 76.1598L69.8379 76.1598L65.8604 80.1373ZM81.0174 80.8248L77.4164 76.5036L81.0174 80.8248ZM84.8473 77.6332L88.4484 81.9545L88.4484 81.9545L84.8473 77.6332ZM96.2275 75.8304L94.1385 81.053H94.1385L96.2275 75.8304ZM111.053 81.7606L113.142 76.5379L111.053 81.7606ZM27.5329 22.7144H43.0084V11.4644H27.5329V22.7144ZM48.2311 26.2503L54.1613 41.0759L64.6067 36.8977L58.6764 22.0721L48.2311 26.2503ZM53.2599 46.766L50.0683 50.5959L58.7108 57.7979L61.9023 53.9681L53.2599 46.766ZM51.0996 73.3314L61.8829 84.1148L69.8379 76.1598L59.0545 65.3765L51.0996 73.3314ZM84.6185 85.146L88.4484 81.9545L81.2463 73.312L77.4164 76.5036L84.6185 85.146ZM94.1385 81.053L108.964 86.9833L113.142 76.5379L98.3166 70.6077L94.1385 81.053ZM112.5 92.206V107.681H123.75V92.206H112.5ZM107.467 112.714C60.5411 112.714 22.5 74.6733 22.5 27.7472H11.25C11.25 80.8865 54.3279 123.964 107.467 123.964V112.714ZM112.5 107.681C112.5 110.461 110.247 112.714 107.467 112.714V123.964C116.46 123.964 123.75 116.674 123.75 107.681H112.5ZM108.964 86.9833C111.1 87.8375 112.5 89.9059 112.5 92.206H123.75C123.75 85.3057 119.549 79.1006 113.142 76.5379L108.964 86.9833ZM88.4484 81.9545C90.0356 80.6318 92.2201 80.2857 94.1385 81.053L98.3166 70.6077C92.5617 68.3057 86.0079 69.3439 81.2463 73.312L88.4484 81.9545ZM61.8829 84.1147C68.0544 90.2862 77.9136 90.7334 84.6185 85.146L77.4164 76.5036C75.1814 78.366 71.8951 78.217 69.8379 76.1598L61.8829 84.1147ZM50.0683 50.5959C44.4809 57.3008 44.9281 67.1599 51.0996 73.3314L59.0545 65.3765C56.9974 63.3193 56.8483 60.0329 58.7108 57.7979L50.0683 50.5959ZM54.1613 41.0759C54.9286 42.9942 54.5825 45.1788 53.2599 46.766L61.9023 53.9681C65.8704 49.2064 66.9086 42.6527 64.6067 36.8977L54.1613 41.0759ZM43.0084 22.7144C45.3085 22.7144 47.3768 24.1147 48.2311 26.2503L58.6764 22.0721C56.1137 15.6654 49.9086 11.4644 43.0084 11.4644V22.7144ZM27.5329 11.4644C18.5401 11.4644 11.25 18.7545 11.25 27.7472H22.5C22.5 24.9677 24.7533 22.7144 27.5329 22.7144V11.4644Z" fill="#5E5883"/>
</svg>
